<svg viewBox="0 0 24 24" id="Layer_1" data-name="Layer 1" xmlns="http://www.w3.org/2000/svg" fill="#80ed99" stroke="#80ed99"><g id="SVGRepo_bgCarrier" stroke-width="0"></g><g id="SVGRepo_tracerCarrier" stroke-linecap="round" stroke-linejoin="round"></g><g id="SVGRepo_iconCarrier"><defs><style>.cls-1{fill:none;stroke:;stroke-miterlimit:10;stroke-width:1.91px;}</style></defs><path class="cls-1" d="M14.52,8.18h4.16a1.91,1.91,0,0,1,0,3.82H15.82v8.59a1.91,1.91,0,0,1-3.82,0,1.91,1.91,0,0,1-3.82,0V12H5.32a1.91,1.91,0,0,1,0-3.82H9.48a3.82,3.82,0,1,1,5,0Z"></path><line class="cls-1" x1="12" y1="15.82" x2="12" y2="20.59"></line><line class="cls-1" x1="11.05" y1="12.95" x2="12.95" y2="12.95"></line><line class="cls-1" x1="7.23" y1="8.18" x2="7.23" y2="12"></line><line class="cls-1" x1="16.77" y1="8.18" x2="16.77" y2="12"></line><line class="cls-1" x1="8.18" y1="18.68" x2="15.82" y2="18.68"></line></g></svg>