<svg fill="#80ed99" version="1.1" id="Layer_1" xmlns="http://www.w3.org/2000/svg" xmlns:xlink="http://www.w3.org/1999/xlink" viewBox="0 0 481.905 481.905" xml:space="preserve" stroke="#80ed99"><g id="SVGRepo_bgCarrier" stroke-width="0"></g><g id="SVGRepo_tracerCarrier" stroke-linecap="round" stroke-linejoin="round"></g><g id="SVGRepo_iconCarrier"> <g> <g> <rect x="235.381" y="455.68" width="11.204" height="26.225"></rect> </g> </g> <g> <g> <rect x="315.717" y="434.121" transform="matrix(0.866 -0.5001 0.5001 0.866 -180.6022 220.6525)" width="11.204" height="26.225"></rect> </g> </g> <g> <g> <rect x="88.637" y="382.796" transform="matrix(0.8661 -0.4999 0.4999 0.8661 -180.5183 102.8621)" width="26.225" height="11.204"></rect> </g> </g> <g> <g> <rect x="147.436" y="441.617" transform="matrix(0.5 -0.866 0.866 0.5 -307.0299 362.6571)" width="26.225" height="11.204"></rect> </g> </g> <g> <g> <rect x="374.568" y="375.316" transform="matrix(0.5 -0.866 0.866 0.5 -146.3072 523.4399)" width="11.204" height="26.225"></rect> </g> </g> <g> <g> <path d="M140.783,344.923c10.576,45.591,51.357,79.602,100.165,79.602c48.808,0,89.588-34.012,100.165-79.602H140.783z"></path> </g> </g> <g> <g> <path d="M476.717,307.618C469.645,185.673,370.162,89.612,248.685,85.649V0h-15.544v85.649 C111.742,89.612,12.26,185.673,5.188,307.618c-0.311,5.595,1.71,11.191,5.518,15.233c3.887,4.198,9.405,6.528,15.078,6.528 h430.338c5.673,0,11.114-2.33,15.078-6.528C475.007,318.809,477.028,313.213,476.717,307.618z M397.347,292.804 c0-81.266-72.627-147.373-161.896-147.373v-15.544c97.842,0,177.44,73.083,177.44,162.918H397.347z"></path> </g> </g> </g></svg>